# xmcd
# 
# Track frame offsets:
#     150
#     17057
#     27172
#     41492
#     56777
#     71192
#     90942
#     115732
#     132750
#     151892
#     164730
#     185147
#     209197
# 
# Disc length: 3042
# 
# Revision: 12
# Processed by: cddbd v1.5.2PL0 Copyright (c) Steve Scherf et al.
# Submitted via: fre:ac v1.0.31
# 
DISCID=b90be00d
DTITLE=Aerosmith - Honkin' On Bobo
DYEAR=2004
DGENRE=Blues
TTITLE0=Road Runner
TTITLE1=Shame, Shame, Shame
TTITLE2=Eyesight To The Blind
TTITLE3=Baby, Please Don't Go
TTITLE4=Never Loved A Girl
TTITLE5=Back Back Train
TTITLE6=You Gotta Move
TTITLE7=The Grind
TTITLE8=I'm Ready
TTITLE9=Temperature
TTITLE10=Stop Messin' Around
TTITLE11=Jesus Is On The Main Line
TTITLE12=CD-EXTRA
EXTD=YEAR: 2004
EXTT0=
EXTT1=
EXTT2=
EXTT3=
EXTT4=
EXTT5=
EXTT6=
EXTT7=
EXTT8=
EXTT9=
EXTT10=
EXTT11=
EXTT12=
PLAYORDER=
